<svg xmlns="http://www.w3.org/2000/svg" width="200" height="200" viewBox="0 0 39 39"
  fill="none" stroke="#2F2F2F" stroke-width="2"
>
  <g transform="translate(5 4)">
    <path d="M5 6L5 1"/>
    <path d="M0 7L4 7"/>
    <path d="M0 0L4 0"/>
    <path d="M-1 6L-1 1"/>
  </g>

  <g transform="translate(17.5 4)">
    <path d="M5 6L5 1"/>
    <path d="M0 7L4 7"/>
    <path d="M0 0L4 0"/>
    <path d="M-1 6L-1 1"/>
  </g>

  <g transform="translate(30 4)">
    <path d="M5 6L5 1"/>
    <path d="M0 7L4 7"/>
    <path d="M0 0L4 0"/>
    <path d="M-1 6L-1 1"/>
  </g>

  <!-- 2nd row -->

  <g transform="translate(5 16)" stroke="#000000">
    <path d="M-2 4L1 4"/>

    <path d="M3 7L3 0"/>
    <path d="M1 7L5 7"/>
    <path d="M1 0L3 0"/>
  </g>

  <g transform="translate(17.5 16)" stroke="#000000">
    <path d="M5 6L5 1"/>
    <path d="M0 7L4 7"/>
    <path d="M0 0L4 0"/>
    <path d="M-1 6L-1 1"/>
  </g>

  <g transform="translate(30 16)" stroke="#000000">
    <path d="M2 7L2 0"/>
    <path d="M0 7L4 7"/>
    <path d="M0 0L2 0"/>
  </g>

  <!-- 3rd row -->

  <g transform="translate(5 28)">
    <path d="M5 6L5 1"/>
    <path d="M0 7L4 7"/>
    <path d="M0 0L4 0"/>
    <path d="M-1 6L-1 1"/>
  </g>

  <g transform="translate(17.5 28)">
    <path d="M5 6L5 1"/>
    <path d="M0 7L4 7"/>
    <path d="M0 0L4 0"/>
    <path d="M-1 6L-1 1"/>
  </g>

  <g transform="translate(30 28)">
    <path d="M5 6L5 1"/>
    <path d="M0 7L4 7"/>
    <path d="M0 0L4 0"/>
    <path d="M-1 6L-1 1"/>
  </g>
</svg>